<?xml version="1.0" standalone="no"?>
<!DOCTYPE svg PUBLIC "-//W3C//DTD SVG 20010904//EN"
 "http://www.w3.org/TR/2001/REC-SVG-20010904/DTD/svg10.dtd">
<svg version="1.0" xmlns="http://www.w3.org/2000/svg"
 width="512.000000pt" height="512.000000pt" viewBox="0 0 512.000000 512.000000"
 preserveAspectRatio="xMidYMid meet">

<g transform="translate(0.000000,512.000000) scale(0.100000,-0.100000)"
fill="#000000" stroke="none">
<path d="M2054 5102 c-56 -20 -89 -43 -129 -90 l-27 -32 -298 0 c-297 0 -299
0 -325 -23 -20 -17 -28 -35 -32 -70 l-6 -47 -161 0 c-177 0 -199 -6 -209 -57
-7 -35 9 -68 40 -82 14 -7 87 -11 178 -11 l155 0 0 -60 0 -60 -320 0 -321 0
-24 -25 -25 -24 0 -2095 c0 -1152 3 -2102 6 -2111 17 -43 42 -45 478 -45 l415
0 27 23 c34 29 36 80 4 111 -20 20 -30 21 -400 24 l-380 3 0 1994 0 1995 269
0 268 0 7 -42 c11 -67 39 -120 89 -165 81 -74 65 -73 806 -73 361 0 673 3 694
6 20 4 61 21 90 38 62 37 114 115 123 188 l7 48 269 0 269 0 -4 -1202 c-2
-1125 -4 -1207 -21 -1263 -60 -200 -178 -355 -346 -456 -125 -74 -270 -109
-455 -109 -140 0 -138 2 -147 -197 -7 -178 -19 -230 -77 -348 -73 -148 -185
-261 -331 -335 -113 -57 -169 -71 -324 -79 -135 -7 -139 -8 -162 -34 -13 -16
-24 -38 -24 -51 0 -28 33 -64 67 -72 52 -13 424 4 543 25 336 59 641 212 885
443 265 250 432 549 517 923 l22 100 3 1382 4 1381 -27 21 c-26 20 -37 21
-345 21 l-319 0 0 60 0 60 403 -2 402 -3 3 -2254 c1 -1658 -1 -2257 -9 -2267
-17 -21 -3391 -21 -3408 0 -8 10 -10 609 -9 2267 l3 2254 90 5 c50 4 97 9 106
14 41 18 44 94 6 121 -30 21 -217 21 -256 1 -35 -19 -89 -79 -96 -109 -3 -12
-4 -1053 -3 -2313 l3 -2291 29 -37 c16 -21 47 -47 70 -57 40 -18 102 -19 1761
-19 1647 0 1722 1 1760 19 46 20 91 69 103 109 4 15 7 1051 7 2302 l0 2275
-25 43 c-14 26 -42 54 -66 68 l-41 24 -416 0 -417 0 0 39 c0 28 -8 49 -26 70
l-26 31 -302 0 -303 0 -30 38 c-69 86 -203 122 -309 84z m153 -152 c18 -10 44
-37 57 -59 14 -22 34 -45 45 -51 12 -6 126 -10 305 -10 l286 0 0 -222 c0 -206
-2 -226 -20 -256 -39 -63 -23 -62 -737 -62 -597 0 -651 1 -683 18 -64 31 -70
58 -70 305 l0 217 291 0 291 0 26 29 c15 15 35 41 46 56 36 53 109 68 163 35z
m1297 -3462 c-164 -461 -526 -822 -982 -979 -30 -10 -57 -19 -60 -19 -3 0 22
28 55 63 159 165 253 391 253 605 l0 79 105 7 c57 4 139 15 182 26 149 38 313
132 418 239 27 28 50 51 52 51 1 0 -9 -33 -23 -72z"/>
<path d="M1545 4545 c-31 -30 -32 -73 -5 -103 l21 -22 584 0 c572 0 585 0 605
20 30 30 27 83 -6 109 -26 21 -35 21 -601 21 l-574 0 -24 -25z"/>
<path d="M4383 3982 c-112 -40 -187 -118 -223 -231 -19 -60 -20 -90 -20 -688
0 -442 3 -631 11 -646 6 -12 22 -33 35 -47 l23 -25 3 -925 3 -925 27 -95 c31
-115 64 -192 124 -287 70 -112 113 -135 179 -94 39 24 119 158 161 269 66 176
64 147 64 1145 l0 904 21 19 c39 35 49 69 49 162 0 93 -7 109 -52 125 -16 6
-18 20 -18 107 0 82 3 100 15 100 8 0 24 9 35 20 19 19 20 33 20 435 0 394 -1
417 -21 470 -27 73 -101 153 -175 189 -76 38 -186 45 -261 18z m237 -1712 l0
-60 -130 0 -130 0 0 60 0 60 130 0 130 0 0 -60z m-14 -1785 c-15 -99 -96 -292
-118 -279 -26 16 -118 262 -118 316 0 4 55 8 121 8 l121 0 -6 -45z"/>
<path d="M1785 3909 c-46 -43 -56 -49 -74 -40 -13 7 -143 11 -384 11 -353 0
-365 -1 -391 -21 l-26 -20 0 -380 c0 -366 1 -380 20 -399 19 -19 33 -20 400
-20 367 0 381 1 400 20 19 19 20 33 20 313 l0 292 95 95 c81 81 95 99 95 127
0 42 -30 73 -71 73 -23 0 -43 -12 -84 -51z m-195 -187 c0 -4 -49 -57 -110
-117 l-110 -110 -73 73 c-60 59 -78 72 -105 72 -42 0 -72 -30 -72 -73 0 -29
14 -47 113 -145 63 -62 122 -112 131 -112 31 0 60 21 149 108 l87 87 0 -158 0
-157 -270 0 -270 0 0 270 0 270 265 0 c146 0 265 -3 265 -8z"/>
<path d="M1959 3721 c-17 -13 -23 -29 -23 -56 0 -27 6 -43 23 -56 22 -18 53
-19 666 -19 354 0 651 3 660 6 26 10 45 63 34 93 -20 52 2 50 -690 51 -617 0
-648 -1 -670 -19z"/>
<path d="M1951 3434 c-28 -36 -26 -60 8 -95 l29 -29 295 0 c283 0 295 1 321
21 20 16 26 29 26 59 0 70 -2 70 -351 70 l-308 0 -20 -26z"/>
<path d="M1850 2993 c-8 -3 -39 -28 -67 -56 -41 -40 -55 -49 -65 -39 -9 9
-108 12 -390 12 -365 0 -379 -1 -398 -20 -19 -19 -20 -33 -20 -399 l0 -380 26
-20 c26 -20 38 -21 394 -21 356 0 368 1 394 21 l26 20 0 292 0 292 95 95 c85
85 95 98 95 131 0 49 -47 87 -90 72z m-360 -348 l-115 -115 -65 64 c-75 73
-102 90 -133 80 -38 -11 -57 -35 -57 -73 0 -32 11 -47 107 -143 143 -144 142
-144 275 -11 l98 98 0 -163 0 -162 -270 0 -270 0 0 270 0 270 272 0 273 0
-115 -115z"/>
<path d="M1951 2744 c-28 -36 -26 -60 8 -95 l29 -29 641 0 640 0 27 23 c34 30
36 83 3 109 -20 17 -66 18 -674 18 l-654 0 -20 -26z"/>
<path d="M1974 2488 c-22 -10 -44 -47 -44 -72 0 -7 9 -25 21 -40 l20 -26 519
0 519 0 20 26 c34 43 26 86 -20 109 -23 13 -107 15 -521 14 -318 0 -501 -4
-514 -11z"/>
<path d="M1791 1984 l-51 -46 -396 2 c-360 1 -398 -1 -415 -16 -18 -16 -19
-38 -19 -399 0 -376 0 -382 21 -401 20 -18 41 -19 401 -19 l380 0 19 24 c18
22 19 43 19 309 l0 286 95 97 c83 84 95 101 95 131 0 23 -8 42 -23 56 -36 34
-68 28 -126 -24z m-308 -306 l-112 -112 -75 72 c-56 54 -81 72 -102 72 -40 0
-74 -36 -74 -79 0 -31 12 -47 108 -143 143 -143 140 -142 273 -11 l99 97 0
-157 0 -157 -270 0 -270 0 0 265 0 265 267 0 268 0 -112 -112z"/>
<path d="M1959 1781 c-34 -35 -36 -59 -8 -95 l20 -26 654 0 c608 0 654 1 674
18 33 26 31 79 -3 109 l-27 23 -640 0 -641 0 -29 -29z"/>
<path d="M1959 1511 c-17 -13 -23 -29 -23 -56 0 -27 6 -43 23 -56 21 -17 43
-19 251 -19 126 0 236 3 245 6 24 10 46 60 39 89 -13 52 -29 55 -280 55 -212
0 -234 -2 -255 -19z"/>
</g>
</svg>
